<?xml version="1.0"?>
<svg xmlns="http://www.w3.org/2000/svg" height="512px" viewBox="0 0 50 60" width="512px" class="hovered-paths"><g><g id="Page-1" fill="none" fill-rule="evenodd"><g id="005---Radioactive-Waste" fill="rgb(0,0,0)" fill-rule="nonzero"><path id="Shape" d="m2 16h1.066l2.682 39.34c.18543461 2.6200472 2.36140841 4.6529337 4.988 4.66h28.528c2.6265916-.0070663 4.8025654-2.0399528 4.988-4.66l2.683-39.34h1.065c1.1045695 0 2-.8954305 2-2v-1c-.0033061-2.7600532-2.2399468-4.99669388-5-5h-8.17l-1.53-4.584c-.6758896-2.04326181-2.5878571-3.42116922-4.74-3.416h-11.12c-2.1543118-.00511769-4.0673499 1.37638639-4.74 3.423l-1.53 4.577h-8.17c-2.76005315.00330612-4.99669388 2.2399468-5 5v1c0 .530433.21071368 1.0391408.58578644 1.4142136.37507276.3750727.88378058.5857864 1.41421356.5857864zm40.256 39.2c-.1090526 1.5733911-1.414841 2.7953855-2.992 2.8h-28.528c-1.5773512-.0045783-2.88344606-1.2264512-2.993-2.8l-2.673-39.2h39.86zm-25.656-51.147c.4025594-1.22687193 1.5487747-2.05545643 2.84-2.053h11.12c1.2895244-.00299353 2.4350813.82269485 2.84 2.047l1.321 3.953h-2.11l-.874-2.631c-.271797-.81748068-1.0365197-1.36906411-1.898-1.369h-9.678c-.8622164-.00092622-1.6279711.55082016-1.9 1.369l-.872 2.631h-2.11zm13.9 3.947h-11l.665-2h9.678zm-28.5 5c0-1.6568542 1.34314575-3 3-3h40c1.6568542 0 3 1.3431458 3 3v1h-46z" data-original="#000000" class="hovered-path active-path" data-old_color="#000000" fill="#01CBE1"/><path id="Shape" d="m25 51c8.2842712 0 15-6.7157288 15-15s-6.7157288-15-15-15-15 6.7157288-15 15c.0093685 8.2803876 6.7196124 14.9906315 15 15zm0-28c7.1797017 0 13 5.8202983 13 13s-5.8202983 13-13 13-13-5.8202983-13-13c.008266-7.1762751 5.8237249-12.991734 13-13z" data-original="#000000" class="hovered-path active-path" data-old_color="#000000" fill="#01CBE1"/><path id="Shape" d="m22.2 38.85-3.067 5.31c-.2761293.4782803-.1122682 1.0898496.366 1.366 3.4034118 1.9649607 7.5965882 1.9649607 11 0 .4782682-.2761504.6421293-.8877197.366-1.366l-3.065-5.31c.5134775-.5096421.8791227-1.1490028 1.058-1.85h6.142c.5522847 0 1-.4477153 1-1-.0085148-3.9275619-2.102839-7.5549313-5.5-9.526-.2297689-.1329197-.5029578-.169032-.759372-.1003798-.2564142.0686523-.4750122.2364354-.607628.4663798l-3.073 5.321c-.6910507-.214637-1.4309493-.214637-2.122 0l-3.072-5.321c-.1326158-.2299444-.3512138-.3977275-.607628-.4663798-.2564142-.0686522-.5296031-.0325399-.759372.1003798-3.3967763 1.9713215-5.4906923 5.5986436-5.499 9.526 0 .5522847.4477153 1 1 1h6.142c.1788773.7009972.5445225 1.3403579 1.058 1.85zm6.405 5.4c-2.3020849.9899572-4.9099151.9899572-7.212 0l2.545-4.407c.6910507.214637 1.4309493.214637 2.122 0zm1.731-15.491c2.0155358 1.4904827 3.3221254 3.7505786 3.608 6.241h-5.086c-.1788773-.7009972-.5445225-1.3403579-1.058-1.85zm-3.336 7.241c0 1.1045695-.8954305 2-2 2s-2-.8954305-2-2 .8954305-2 2-2 2 .8954305 2 2zm-7.337-7.245 2.537 4.395c-.5134775.5096421-.8791227 1.1490028-1.058 1.85h-5.086c.2845669-2.491702 1.5908876-4.7534076 3.607-6.245z" data-original="#000000" class="hovered-path active-path" data-old_color="#000000" fill="#01CBE1"/><path id="Shape" d="m14 54h-2c-.5522847 0-1 .4477153-1 1s.4477153 1 1 1h2c.5522847 0 1-.4477153 1-1s-.4477153-1-1-1z" data-original="#000000" class="hovered-path active-path" data-old_color="#000000" fill="#01CBE1"/><path id="Shape" d="m38 54h-20c-.5522847 0-1 .4477153-1 1s.4477153 1 1 1h20c.5522847 0 1-.4477153 1-1s-.4477153-1-1-1z" data-original="#000000" class="hovered-path active-path" data-old_color="#000000" fill="#01CBE1"/></g></g></g> </svg>
